<svg width="48" height="48" viewBox="0 0 48 48" fill="none" xmlns="http://www.w3.org/2000/svg">
<path d="M42 33C42 33.76 41.58 34.42 40.94 34.76L25.14 43.64C24.82 43.88 24.42 44 24 44C23.58 44 23.18 43.88 22.86 43.64L7.06001 34.76C6.73937 34.5915 6.47103 34.3384 6.28415 34.0281C6.09728 33.7178 5.999 33.3622 6.00001 33V15C6.00001 14.24 6.42001 13.58 7.06001 13.24L22.86 4.36C23.18 4.12 23.58 4 24 4C24.42 4 24.82 4.12 25.14 4.36L40.94 13.24C41.58 13.58 42 14.24 42 15V33ZM24 8.3L20.22 10.44L32 17.22L35.92 15L24 8.3ZM12.08 15L24 21.7L27.92 19.5L16.16 12.7L12.08 15ZM10 31.82L22 38.58V25.16L10 18.42V31.82ZM38 31.82V18.42L26 25.16V38.58L38 31.82Z" fill="#A6ADBA"/>
</svg>
