<svg width="48" height="48" viewBox="0 0 48 48" fill="none" xmlns="http://www.w3.org/2000/svg">
<path d="M27.5 18C26.6716 18 26 17.3284 26 16.5V7.5C26 6.67157 26.6716 6 27.5 6H40.5C41.3284 6 42 6.67157 42 7.5V16.5C42 17.3284 41.3284 18 40.5 18H27.5ZM7.5 26C6.67157 26 6 25.3284 6 24.5V7.5C6 6.67157 6.67157 6 7.5 6H20.5C21.3284 6 22 6.67157 22 7.5V24.5C22 25.3284 21.3284 26 20.5 26H7.5ZM27.5 42C26.6716 42 26 41.3284 26 40.5V23.5C26 22.6716 26.6716 22 27.5 22H40.5C41.3284 22 42 22.6716 42 23.5V40.5C42 41.3284 41.3284 42 40.5 42H27.5ZM7.5 42C6.67157 42 6 41.3284 6 40.5V31.5C6 30.6716 6.67157 30 7.5 30H20.5C21.3284 30 22 30.6716 22 31.5V40.5C22 41.3284 21.3284 42 20.5 42H7.5ZM10 21C10 21.8284 10.6716 22.5 11.5 22.5H16.5C17.3284 22.5 18 21.8284 18 21V11C18 10.1716 17.3284 9.5 16.5 9.5H11.5C10.6716 9.5 10 10.1716 10 11V21ZM30 37C30 37.8284 30.6716 38.5 31.5 38.5H36.5C37.3284 38.5 38 37.8284 38 37V27C38 26.1716 37.3284 25.5 36.5 25.5H31.5C30.6716 25.5 30 26.1716 30 27V37ZM30 13C30 13.8284 30.6716 14.5 31.5 14.5H36.5C37.3284 14.5 38 13.8284 38 13V11C38 10.1716 37.3284 9.5 36.5 9.5H31.5C30.6716 9.5 30 10.1716 30 11V13ZM10 37C10 37.8284 10.6716 38.5 11.5 38.5H16.5C17.3284 38.5 18 37.8284 18 37V35C18 34.1716 17.3284 33.5 16.5 33.5H11.5C10.6716 33.5 10 34.1716 10 35V37Z" fill="#A6ADBA"/>
</svg>
